<svg width="500" height="500" viewBox="0 0 500 500" fill="none" xmlns="http://www.w3.org/2000/svg">
<rect width="500" height="500" fill="#1572B6"/>
<path d="M145.833 145.833H104.167C93.116 145.833 82.5179 150.223 74.7039 158.037C66.8899 165.851 62.5 176.449 62.5 187.5V354.167H104.167V270.833H145.833V354.167H187.5V187.5C187.5 176.449 183.11 165.851 175.296 158.037C167.482 150.223 156.884 145.833 145.833 145.833M145.833 229.167H104.167V187.5H145.833M291.667 145.833H208.333V354.167H250V270.833H291.667C302.717 270.833 313.315 266.443 321.129 258.629C328.943 250.815 333.333 240.217 333.333 229.167V187.5C333.333 176.449 328.943 165.851 321.129 158.037C313.315 150.223 302.717 145.833 291.667 145.833M291.667 229.167H250V187.5H291.667M416.667 187.5V312.5H437.5V354.167H354.167V312.5H375V187.5H354.167V145.833H437.5V187.5H416.667Z" fill="white"/>
</svg>
