<svg width="500" height="500" viewBox="0 0 500 500" fill="none" xmlns="http://www.w3.org/2000/svg">
<rect width="500" height="500" fill="#F12A2A"/>
<path d="M223.252 66.6749C228.821 62.8594 232.852 59.69 235.375 57.5361L238.76 54.5514C241.622 51.6653 245.51 50.0292 249.575 50.0004C253.64 49.9716 257.55 51.5524 260.453 54.3975C265.434 58.7883 270.697 62.8484 276.208 66.5518C287.439 74.1213 304.916 84.214 329.225 93.6297C355.712 103.744 383.599 109.722 411.905 111.353C414.182 111.477 415.905 111.507 417.074 111.538H418.613C420.654 111.505 422.681 111.879 424.576 112.638C426.471 113.396 428.196 114.524 429.651 115.956C431.106 117.388 432.261 119.095 433.05 120.978C433.838 122.861 434.244 124.882 434.244 126.923V211.726C434.246 251.839 423.792 291.26 403.914 326.101C384.035 360.943 355.419 390.001 320.886 410.41L257.499 447.858C255.128 449.26 252.423 450 249.668 450C246.913 450 244.209 449.26 241.837 447.858L178.389 410.38C143.85 389.974 115.227 360.917 95.3435 326.076C75.4596 291.234 65.0012 251.812 65 211.696V126.923C64.9999 124.89 65.4029 122.877 66.1857 121C66.9684 119.123 68.1155 117.42 69.5605 115.99C71.0055 114.559 72.7197 113.429 74.6041 112.665C76.4885 111.901 78.5057 111.518 80.539 111.538H82.1083L87.3393 111.323C115.764 109.587 143.768 103.603 170.419 93.5682C189.014 86.6832 206.744 77.6581 223.252 66.6749V66.6749ZM288.085 226.927C288.083 219.993 286.207 213.188 282.654 207.233C279.102 201.278 274.006 196.394 267.905 193.098C261.805 189.802 254.927 188.217 247.999 188.509C241.071 188.802 234.351 190.962 228.55 194.76C222.75 198.559 218.083 203.855 215.046 210.089C212.008 216.322 210.712 223.26 211.295 230.17C211.878 237.079 214.318 243.703 218.356 249.339C222.395 254.976 227.882 259.416 234.237 262.19V296.283C234.237 300.364 235.858 304.277 238.743 307.162C241.628 310.047 245.542 311.668 249.622 311.668C253.702 311.668 257.616 310.047 260.501 307.162C263.386 304.277 265.007 300.364 265.007 296.283V262.19C271.868 259.195 277.706 254.264 281.805 248C285.905 241.736 288.087 234.413 288.085 226.927V226.927Z" fill="white"/>
</svg>
