<svg width="500" height="500" viewBox="0 0 500 500" fill="none" xmlns="http://www.w3.org/2000/svg">
<rect width="500" height="500" fill="#272626"/>
<rect x="114" y="131" width="271" height="237" fill="white"/>
<path d="M133.081 90C110.258 90 93.3687 109.977 94.125 131.641C94.8516 152.453 93.9078 179.411 87.1219 201.394C80.3156 223.441 68.8031 237.406 50 239.2V259.444C68.8031 261.238 80.3156 275.203 87.1219 297.252C93.9078 319.234 94.8516 346.189 94.125 367.003C93.3687 388.664 110.258 408.644 133.084 408.644H366.948C389.773 408.644 406.658 388.667 405.902 367.003C405.177 346.191 406.119 319.234 412.905 297.252C419.716 275.205 431.197 261.236 450 259.444V239.2C431.197 237.406 419.716 223.441 412.906 201.394C406.119 179.414 405.177 152.455 405.902 131.641C406.658 109.98 389.773 90 366.948 90H133.078H133.081V90ZM321.187 286.145C321.187 315.977 298.938 334.067 262.013 334.067H199.153C197.355 334.067 195.631 333.352 194.36 332.081C193.089 330.81 192.375 329.085 192.375 327.287V171.356C192.375 170.466 192.55 169.584 192.891 168.761C193.231 167.939 193.731 167.191 194.36 166.561C194.99 165.932 195.737 165.432 196.56 165.091C197.383 164.75 198.264 164.575 199.155 164.575H261.653C292.442 164.575 312.648 181.255 312.648 206.861C312.648 224.834 299.055 240.925 281.737 243.742V244.681C305.314 247.267 321.187 263.594 321.187 286.145V286.145ZM255.156 186.067H219.317V236.692H249.505C272.839 236.692 285.708 227.295 285.708 210.498C285.708 194.759 274.642 186.067 255.158 186.067H255.156ZM219.317 256.78V312.569H256.477C280.77 312.569 293.642 302.82 293.642 284.498C293.642 266.173 280.413 256.777 254.914 256.777H219.317V256.78Z" fill="#7E13F8"/>
</svg>
