<svg width="500" height="500" viewBox="0 0 500 500" fill="none" xmlns="http://www.w3.org/2000/svg">
<rect width="500" height="500" fill="black"/>
<path d="M172.46 227H157.489C156.603 222.694 155.054 218.911 152.84 215.651C150.667 212.391 148.011 209.654 144.871 207.44C141.772 205.187 138.331 203.496 134.548 202.369C130.765 201.242 126.821 200.679 122.716 200.679C115.23 200.679 108.449 202.571 102.371 206.354C96.3345 210.137 91.5251 215.711 87.9432 223.076C84.4015 230.441 82.6307 239.476 82.6307 250.182C82.6307 260.887 84.4015 269.923 87.9432 277.288C91.5251 284.653 96.3345 290.227 102.371 294.01C108.449 297.793 115.23 299.685 122.716 299.685C126.821 299.685 130.765 299.121 134.548 297.994C138.331 296.867 141.772 295.197 144.871 292.984C148.011 290.73 150.667 287.973 152.84 284.713C155.054 281.413 156.603 277.63 157.489 273.364H172.46C171.333 279.682 169.281 285.337 166.303 290.327C163.324 295.318 159.622 299.564 155.195 303.065C150.768 306.527 145.797 309.163 140.283 310.974C134.81 312.785 128.954 313.69 122.716 313.69C112.171 313.69 102.794 311.115 94.5838 305.963C86.3736 300.812 79.9141 293.487 75.2053 283.989C70.4964 274.491 68.142 263.222 68.142 250.182C68.142 237.142 70.4964 225.873 75.2053 216.375C79.9141 206.877 86.3736 199.552 94.5838 194.401C102.794 189.249 112.171 186.673 122.716 186.673C128.954 186.673 134.81 187.579 140.283 189.39C145.797 191.201 150.768 193.857 155.195 197.359C159.622 200.82 163.324 205.046 166.303 210.036C169.281 214.987 171.333 220.641 172.46 227ZM196.653 188.364H214.523L256.54 290.991H257.988L300.006 188.364H317.875V312H303.869V218.065H302.662L264.025 312H250.503L211.866 218.065H210.659V312H196.653V188.364ZM415.507 219.273C414.783 213.155 411.845 208.406 406.693 205.026C401.542 201.645 395.223 199.955 387.737 199.955C382.264 199.955 377.474 200.84 373.369 202.611C369.304 204.382 366.125 206.817 363.831 209.915C361.577 213.014 360.45 216.536 360.45 220.48C360.45 223.78 361.235 226.618 362.805 228.992C364.415 231.326 366.467 233.278 368.962 234.848C371.458 236.377 374.074 237.645 376.81 238.651C379.547 239.617 382.062 240.402 384.357 241.006L396.913 244.386C400.133 245.232 403.715 246.399 407.659 247.888C411.643 249.377 415.447 251.409 419.069 253.985C422.731 256.521 425.75 259.781 428.124 263.765C430.499 267.749 431.686 272.639 431.686 278.435C431.686 285.116 429.935 291.152 426.434 296.545C422.973 301.938 417.902 306.225 411.221 309.404C404.58 312.584 396.511 314.173 387.013 314.173C378.159 314.173 370.492 312.745 364.012 309.887C357.573 307.03 352.502 303.045 348.799 297.934C345.137 292.823 343.064 286.886 342.581 280.125H358.036C358.438 284.794 360.008 288.657 362.744 291.716C365.521 294.734 369.023 296.988 373.249 298.477C377.515 299.926 382.103 300.651 387.013 300.651C392.728 300.651 397.859 299.725 402.407 297.874C406.955 295.982 410.557 293.366 413.213 290.026C415.869 286.645 417.197 282.701 417.197 278.193C417.197 274.088 416.05 270.748 413.756 268.172C411.462 265.596 408.444 263.503 404.701 261.893C400.958 260.284 396.913 258.875 392.567 257.668L377.354 253.321C367.695 250.544 360.048 246.58 354.413 241.428C348.779 236.277 345.962 229.536 345.962 221.205C345.962 214.282 347.833 208.245 351.576 203.094C355.359 197.902 360.43 193.877 366.789 191.02C373.188 188.122 380.332 186.673 388.22 186.673C396.189 186.673 403.272 188.102 409.47 190.96C415.668 193.777 420.578 197.64 424.2 202.55C427.863 207.46 429.795 213.035 429.996 219.273H415.507Z" fill="#7D0BFF"/>
<path d="M172.46 227V234H180.81L179.353 225.779L172.46 227ZM157.489 227L150.632 228.41L151.781 234H157.489V227ZM152.84 215.651L147.016 219.533L147.032 219.558L147.049 219.583L152.84 215.651ZM144.871 207.44L140.754 213.101L140.796 213.132L140.838 213.161L144.871 207.44ZM134.548 202.369L132.55 209.078L132.55 209.078L134.548 202.369ZM102.371 206.354L98.6721 200.411L98.6632 200.417L98.6544 200.422L102.371 206.354ZM87.9432 223.076L81.6482 220.014L81.6414 220.028L81.6347 220.042L87.9432 223.076ZM87.9432 277.288L81.6347 280.321L81.6414 280.335L81.6482 280.349L87.9432 277.288ZM102.371 294.01L98.6544 299.941L98.6632 299.947L98.6721 299.953L102.371 294.01ZM134.548 297.994L132.55 291.286L132.55 291.286L134.548 297.994ZM144.871 292.984L148.94 298.68L148.947 298.675L148.954 298.67L144.871 292.984ZM152.84 284.713L147.027 280.814L147.021 280.822L147.016 280.83L152.84 284.713ZM157.489 273.364V266.364H151.792L150.635 271.941L157.489 273.364ZM172.46 273.364L179.351 274.593L180.819 266.364H172.46V273.364ZM166.303 290.327L160.292 286.74L160.292 286.74L166.303 290.327ZM155.195 303.065L159.506 308.58L159.522 308.568L159.537 308.556L155.195 303.065ZM140.283 310.974L138.099 304.323L138.092 304.326L138.084 304.328L140.283 310.974ZM94.5838 305.963L90.8634 311.893L90.8634 311.893L94.5838 305.963ZM75.2053 283.989L81.4768 280.879L81.4768 280.879L75.2053 283.989ZM75.2053 216.375L68.9337 213.266L75.2053 216.375ZM140.283 189.39L138.084 196.036L138.092 196.038L138.099 196.04L140.283 189.39ZM155.195 197.359L150.852 202.849L150.868 202.861L150.883 202.873L155.195 197.359ZM166.303 210.036L160.292 213.623L160.298 213.634L160.304 213.645L166.303 210.036ZM172.46 220H157.489V234H172.46V220ZM164.345 225.59C163.296 220.486 161.419 215.824 158.631 211.718L147.049 219.583C148.688 221.997 149.911 224.902 150.632 228.41L164.345 225.59ZM158.665 211.768C156.023 207.805 152.764 204.44 148.905 201.72L140.838 213.161C143.258 214.868 145.311 216.977 147.016 219.533L158.665 211.768ZM148.989 201.779C145.229 199.045 141.067 197.007 136.547 195.661L132.55 209.078C135.596 209.985 138.316 211.329 140.754 213.101L148.989 201.779ZM136.547 195.661C132.089 194.333 127.471 193.679 122.716 193.679V207.679C126.172 207.679 129.441 208.152 132.55 209.078L136.547 195.661ZM122.716 193.679C113.985 193.679 105.911 195.904 98.6721 200.411L106.071 212.296C110.986 209.237 116.475 207.679 122.716 207.679V193.679ZM98.6544 200.422C91.3479 205.001 85.716 211.65 81.6482 220.014L94.2382 226.138C97.3342 219.772 101.321 215.273 106.089 212.285L98.6544 200.422ZM81.6347 220.042C77.5195 228.6 75.6307 238.738 75.6307 250.182H89.6307C89.6307 240.214 91.2835 232.282 94.2517 226.11L81.6347 220.042ZM75.6307 250.182C75.6307 261.625 77.5195 271.764 81.6347 280.321L94.2517 274.254C91.2835 268.082 89.6307 260.149 89.6307 250.182H75.6307ZM81.6482 280.349C85.716 288.713 91.3479 295.363 98.6544 299.941L106.089 288.078C101.321 285.091 97.3342 280.592 94.2382 274.226L81.6482 280.349ZM98.6721 299.953C105.911 304.459 113.985 306.685 122.716 306.685V292.685C116.475 292.685 110.986 291.127 106.071 288.067L98.6721 299.953ZM122.716 306.685C127.471 306.685 132.089 306.031 136.547 304.703L132.55 291.286C129.441 292.212 126.172 292.685 122.716 292.685V306.685ZM136.547 304.703C141.044 303.363 145.189 301.359 148.94 298.68L140.803 287.288C138.356 289.035 135.619 290.371 132.55 291.286L136.547 304.703ZM148.954 298.67C152.787 295.918 156.03 292.547 158.665 288.596L147.016 280.83C145.303 283.399 143.234 285.542 140.789 287.297L148.954 298.67ZM158.654 288.612C161.417 284.492 163.291 279.852 164.343 274.786L150.635 271.941C149.915 275.408 148.69 278.334 147.027 280.814L158.654 288.612ZM157.489 280.364H172.46V266.364H157.489V280.364ZM165.569 272.135C164.575 277.707 162.793 282.548 160.292 286.74L172.314 293.915C175.768 288.126 178.092 281.657 179.351 274.593L165.569 272.135ZM160.292 286.74C157.736 291.022 154.592 294.617 150.852 297.575L159.537 308.556C164.651 304.511 168.913 299.614 172.314 293.915L160.292 286.74ZM150.883 297.551C147.115 300.497 142.869 302.757 138.099 304.323L142.468 317.624C148.725 315.569 154.42 312.556 159.506 308.58L150.883 297.551ZM138.084 304.328C133.376 305.886 128.268 306.69 122.716 306.69V320.69C129.64 320.69 136.244 319.684 142.482 317.619L138.084 304.328ZM122.716 306.69C113.367 306.69 105.302 304.424 98.3042 300.034L90.8634 311.893C100.286 317.805 110.975 320.69 122.716 320.69V306.69ZM98.3042 300.034C91.2898 295.632 85.6675 289.332 81.4768 280.879L68.9337 287.098C74.1607 297.641 81.4573 305.991 90.8634 311.893L98.3042 300.034ZM81.4768 280.879C77.3447 272.545 75.142 262.386 75.142 250.182H61.142C61.142 264.057 63.6482 276.437 68.9337 287.098L81.4768 280.879ZM75.142 250.182C75.142 237.977 77.3447 227.819 81.4768 219.484L68.9337 213.266C63.6482 223.927 61.142 236.307 61.142 250.182H75.142ZM81.4768 219.484C85.6675 211.031 91.2898 204.731 98.3042 200.33L90.8634 188.471C81.4573 194.373 74.1607 202.722 68.9337 213.266L81.4768 219.484ZM98.3042 200.33C105.302 195.939 113.367 193.673 122.716 193.673V179.673C110.975 179.673 100.286 182.559 90.8634 188.471L98.3042 200.33ZM122.716 193.673C128.268 193.673 133.376 194.478 138.084 196.036L142.482 182.744C136.244 180.68 129.64 179.673 122.716 179.673V193.673ZM138.099 196.04C142.853 197.602 147.089 199.873 150.852 202.849L159.537 191.868C154.446 187.842 148.741 184.8 142.468 182.739L138.099 196.04ZM150.883 202.873C154.606 205.784 157.741 209.349 160.292 213.623L172.314 206.449C168.908 200.742 164.637 195.855 159.506 191.844L150.883 202.873ZM160.304 213.645C162.792 217.779 164.573 222.607 165.568 228.221L179.353 225.779C178.094 218.675 175.77 212.194 172.301 206.428L160.304 213.645ZM196.653 188.364V181.364H189.653V188.364H196.653ZM214.523 188.364L221.001 185.711L219.221 181.364H214.523V188.364ZM256.54 290.991L250.061 293.644L251.842 297.991H256.54V290.991ZM257.988 290.991V297.991H262.687L264.467 293.644L257.988 290.991ZM300.006 188.364V181.364H295.307L293.527 185.711L300.006 188.364ZM317.875 188.364H324.875V181.364H317.875V188.364ZM317.875 312V319H324.875V312H317.875ZM303.869 312H296.869V319H303.869V312ZM303.869 218.065H310.869V211.065H303.869V218.065ZM302.662 218.065V211.065H297.972L296.188 215.403L302.662 218.065ZM264.025 312V319H268.715L270.499 314.663L264.025 312ZM250.503 312L244.029 314.663L245.813 319H250.503V312ZM211.866 218.065L218.34 215.403L216.556 211.065H211.866V218.065ZM210.659 218.065V211.065H203.659V218.065H210.659ZM210.659 312V319H217.659V312H210.659ZM196.653 312H189.653V319H196.653V312ZM196.653 195.364H214.523V181.364H196.653V195.364ZM208.044 191.016L250.061 293.644L263.018 288.339L221.001 185.711L208.044 191.016ZM256.54 297.991H257.988V283.991H256.54V297.991ZM264.467 293.644L306.484 191.016L293.527 185.711L251.51 288.339L264.467 293.644ZM300.006 195.364H317.875V181.364H300.006V195.364ZM310.875 188.364V312H324.875V188.364H310.875ZM317.875 305H303.869V319H317.875V305ZM310.869 312V218.065H296.869V312H310.869ZM303.869 211.065H302.662V225.065H303.869V211.065ZM296.188 215.403L257.552 309.337L270.499 314.663L309.136 220.728L296.188 215.403ZM264.025 305H250.503V319H264.025V305ZM256.976 309.337L218.34 215.403L205.393 220.728L244.029 314.663L256.976 309.337ZM211.866 211.065H210.659V225.065H211.866V211.065ZM203.659 218.065V312H217.659V218.065H203.659ZM210.659 305H196.653V319H210.659V305ZM203.653 312V188.364H189.653V312H203.653ZM415.507 219.273L408.556 220.096L409.287 226.273H415.507V219.273ZM406.693 205.026L402.853 210.878L402.853 210.878L406.693 205.026ZM373.369 202.611L370.597 196.183L370.585 196.188L370.574 196.193L373.369 202.611ZM363.831 209.915L358.205 205.751L358.187 205.774L358.17 205.798L363.831 209.915ZM362.805 228.992L356.965 232.852L357.003 232.91L357.042 232.966L362.805 228.992ZM368.962 234.848L365.235 240.773L365.27 240.795L365.304 240.816L368.962 234.848ZM376.81 238.651L374.395 245.221L374.438 245.237L374.481 245.252L376.81 238.651ZM384.357 241.006L386.176 234.246L386.157 234.241L386.138 234.236L384.357 241.006ZM396.913 244.386L395.094 251.146L395.115 251.151L395.136 251.157L396.913 244.386ZM407.659 247.888L405.187 254.437L405.198 254.441L405.208 254.445L407.659 247.888ZM419.069 253.985L415.012 259.69L415.048 259.715L415.084 259.74L419.069 253.985ZM428.124 263.765L434.137 260.181L434.137 260.181L428.124 263.765ZM426.434 296.545L420.563 292.734L420.553 292.749L420.543 292.765L426.434 296.545ZM411.221 309.404L408.213 303.083L408.205 303.087L408.198 303.09L411.221 309.404ZM364.012 309.887L361.173 316.285L361.18 316.289L361.188 316.292L364.012 309.887ZM348.799 297.934L343.109 302.011L343.119 302.026L343.13 302.041L348.799 297.934ZM342.581 280.125V273.125H335.063L335.599 280.624L342.581 280.125ZM358.036 280.125L365.01 279.524L364.458 273.125H358.036V280.125ZM362.744 291.716L357.528 296.383L357.56 296.42L357.593 296.455L362.744 291.716ZM373.249 298.477L370.922 305.079L370.96 305.093L370.998 305.105L373.249 298.477ZM402.407 297.874L405.046 304.357L405.071 304.347L405.095 304.337L402.407 297.874ZM413.213 290.026L418.692 294.382L418.705 294.366L418.717 294.35L413.213 290.026ZM413.756 268.172L418.984 263.516L418.984 263.516L413.756 268.172ZM404.701 261.893L401.935 268.324L401.935 268.324L404.701 261.893ZM392.567 257.668L390.644 264.398L390.668 264.405L390.693 264.412L392.567 257.668ZM377.354 253.321L375.42 260.049L375.431 260.052L377.354 253.321ZM354.413 241.428L349.69 246.594L349.69 246.594L354.413 241.428ZM351.576 203.094L345.919 198.971L345.913 198.979L351.576 203.094ZM366.789 191.02L369.658 197.405L369.667 197.401L369.677 197.397L366.789 191.02ZM409.47 190.96L406.539 197.316L406.556 197.324L406.574 197.332L409.47 190.96ZM424.2 202.55L418.567 206.706L418.578 206.721L418.589 206.736L424.2 202.55ZM429.996 219.273V226.273H437.225L436.992 219.047L429.996 219.273ZM422.459 218.45C421.491 210.278 417.414 203.688 410.534 199.173L402.853 210.878C406.276 213.124 408.075 216.033 408.556 220.096L422.459 218.45ZM410.534 199.173C404.017 194.896 396.292 192.955 387.737 192.955V206.955C394.154 206.955 399.067 208.393 402.853 210.878L410.534 199.173ZM387.737 192.955C381.519 192.955 375.75 193.96 370.597 196.183L376.142 209.038C379.199 207.72 383.009 206.955 387.737 206.955V192.955ZM370.574 196.193C365.555 198.38 361.332 201.526 358.205 205.751L369.457 214.08C370.918 212.107 373.054 210.384 376.165 209.028L370.574 196.193ZM358.17 205.798C355.019 210.131 353.45 215.103 353.45 220.48H367.45C367.45 217.969 368.135 215.898 369.492 214.033L358.17 205.798ZM353.45 220.48C353.45 224.929 354.524 229.159 356.965 232.852L368.644 225.132C367.946 224.076 367.45 222.632 367.45 220.48H353.45ZM357.042 232.966C359.213 236.113 361.969 238.718 365.235 240.773L372.69 228.923C370.965 227.838 369.617 226.54 368.567 225.018L357.042 232.966ZM365.304 240.816C368.192 242.586 371.224 244.055 374.395 245.221L379.226 232.081C376.924 231.235 374.724 230.169 372.62 228.88L365.304 240.816ZM374.481 245.252C377.36 246.268 380.061 247.114 382.575 247.775L386.138 234.236C384.064 233.69 381.735 232.966 379.14 232.05L374.481 245.252ZM382.537 247.765L395.094 251.146L398.733 237.627L386.176 234.246L382.537 247.765ZM395.136 251.157C398.068 251.927 401.413 253.012 405.187 254.437L410.132 241.339C406.017 239.785 402.198 238.536 398.691 237.616L395.136 251.157ZM405.208 254.445C408.598 255.711 411.864 257.451 415.012 259.69L423.126 248.28C419.03 245.368 414.689 243.042 410.11 241.331L405.208 254.445ZM415.084 259.74C417.889 261.682 420.228 264.189 422.111 267.349L434.137 260.181C431.272 255.373 427.574 251.359 423.053 248.23L415.084 259.74ZM422.111 267.348C423.697 270.009 424.686 273.589 424.686 278.435H438.686C438.686 271.689 437.301 265.489 434.137 260.181L422.111 267.348ZM424.686 278.435C424.686 283.818 423.298 288.521 420.563 292.734L432.305 300.357C436.573 293.784 438.686 286.413 438.686 278.435H424.686ZM420.543 292.765C417.89 296.897 413.9 300.377 408.213 303.083L414.229 315.725C421.903 312.073 428.055 306.98 432.325 300.326L420.543 292.765ZM408.198 303.09C402.733 305.707 395.757 307.173 387.013 307.173V321.173C397.265 321.173 406.427 319.46 414.244 315.718L408.198 303.09ZM387.013 307.173C378.895 307.173 372.233 305.862 366.837 303.482L361.188 316.292C368.75 319.627 377.422 321.173 387.013 321.173V307.173ZM366.851 303.489C361.407 301.073 357.364 297.826 354.468 293.827L343.13 302.041C347.639 308.265 353.739 312.987 361.173 316.285L366.851 303.489ZM354.489 293.857C351.638 289.878 349.962 285.203 349.563 279.626L335.599 280.624C336.166 288.57 338.635 295.767 343.109 302.011L354.489 293.857ZM342.581 287.125H358.036V273.125H342.581V287.125ZM351.061 280.726C351.575 286.681 353.64 292.039 357.528 296.383L367.961 287.048C366.375 285.276 365.301 282.906 365.01 279.524L351.061 280.726ZM357.593 296.455C361.215 300.393 365.718 303.246 370.922 305.079L375.575 291.875C372.327 290.731 369.828 289.076 367.896 286.977L357.593 296.455ZM370.998 305.105C376.051 306.822 381.406 307.651 387.013 307.651V293.651C382.8 293.651 378.979 293.031 375.5 291.849L370.998 305.105ZM387.013 307.651C393.486 307.651 399.535 306.601 405.046 304.357L399.768 291.39C396.184 292.849 391.969 293.651 387.013 293.651V307.651ZM405.095 304.337C410.566 302.061 415.192 298.784 418.692 294.382L407.734 285.669C405.922 287.948 403.343 289.903 399.719 291.41L405.095 304.337ZM418.717 294.35C422.392 289.674 424.197 284.188 424.197 278.193H410.197C410.197 281.214 409.347 283.616 407.709 285.701L418.717 294.35ZM424.197 278.193C424.197 272.716 422.63 267.61 418.984 263.516L408.529 272.827C409.471 273.886 410.197 275.461 410.197 278.193H424.197ZM418.984 263.516C415.896 260.05 411.981 257.405 407.467 255.463L401.935 268.324C404.906 269.602 407.028 271.142 408.529 272.827L418.984 263.516ZM407.467 255.463C403.405 253.716 399.059 252.206 394.44 250.923L390.693 264.412C394.768 265.544 398.511 266.851 401.935 268.324L407.467 255.463ZM394.49 250.937L379.277 246.59L375.431 260.052L390.644 264.398L394.49 250.937ZM379.288 246.594C370.351 244.024 363.763 240.492 359.137 236.262L349.69 246.594C356.332 252.668 365.038 257.064 375.42 260.049L379.288 246.594ZM359.137 236.262C355.094 232.566 352.962 227.771 352.962 221.205H338.962C338.962 231.3 342.464 239.987 349.69 246.594L359.137 236.262ZM352.962 221.205C352.962 215.625 354.442 211.058 357.239 207.208L345.913 198.979C341.225 205.432 338.962 212.94 338.962 221.205H352.962ZM357.233 207.216C360.239 203.091 364.312 199.807 369.658 197.405L363.92 184.635C356.548 187.948 350.479 192.713 345.919 198.971L357.233 207.216ZM369.677 197.397C375.063 194.957 381.205 193.673 388.22 193.673V179.673C379.459 179.673 371.313 181.287 363.902 184.643L369.677 197.397ZM388.22 193.673C395.345 193.673 401.402 194.948 406.539 197.316L412.401 184.603C405.143 181.256 397.032 179.673 388.22 179.673V193.673ZM406.574 197.332C411.814 199.714 415.733 202.863 418.567 206.706L429.833 198.395C425.424 192.417 419.523 187.84 412.367 184.587L406.574 197.332ZM418.589 206.736C421.379 210.476 422.843 214.662 422.999 219.498L436.992 219.047C436.746 211.407 434.347 204.445 429.811 198.365L418.589 206.736ZM429.996 212.273H415.507V226.273H429.996V212.273Z" fill="#7D0BFF"/>
</svg>
