<svg width="500" height="500" viewBox="0 0 500 500" fill="none" xmlns="http://www.w3.org/2000/svg">
<rect width="500" height="500" fill="#F1662A"/>
<path d="M106.086 410.014L74 50H426.686L394.557 409.957L250.129 450L106.086 410.014Z" fill="#1572B6"/>
<path d="M250.343 419.4L367.057 387.043L394.514 79.4425H250.343V419.4Z" fill="#33A9DC"/>
<path d="M250.343 209.871H308.771L312.8 164.657H250.343V120.5H361.057L360 132.343L349.157 254.029H250.343V209.871V209.871Z" fill="white"/>
<path d="M250.614 324.543L250.414 324.6L201.243 311.315L198.1 276.1H153.771L159.957 345.429L250.4 370.543L250.614 370.486V324.543V324.543Z" fill="#EBEBEB"/>
<path d="M305.015 252.157L299.701 311.286L250.458 324.571V370.514L340.972 345.429L341.644 337.971L349.315 252.157H305.015V252.157Z" fill="white"/>
<path d="M250.501 120.5V164.657H143.844L142.958 154.729L140.944 132.343L139.887 120.5H250.501V120.5ZM250.344 209.871V254.029H201.787L200.901 244.1L198.901 221.714L197.844 209.871H250.344V209.871Z" fill="#EBEBEB"/>
</svg>
