<svg width="500" height="500" viewBox="0 0 500 500" fill="none" xmlns="http://www.w3.org/2000/svg">
<rect width="500" height="500" fill="black"/>
<path d="M425 107.143V142.857C425 174.33 346.615 200 250 200C153.385 200 75 174.33 75 142.857V107.143C75 75.6695 153.385 50 250 50C346.615 50 425 75.6695 425 107.143ZM425 187.5V267.857C425 299.33 346.615 325 250 325C153.385 325 75 299.33 75 267.857V187.5C112.598 213.393 181.412 225.447 250 225.447C318.587 225.447 387.402 213.393 425 187.5ZM425 312.5V392.857C425 424.33 346.615 450 250 450C153.385 450 75 424.33 75 392.857V312.5C112.598 338.393 181.412 350.447 250 350.447C318.587 350.447 387.402 338.393 425 312.5Z" fill="white"/>
</svg>
