<svg width="500" height="500" viewBox="0 0 500 500" fill="none" xmlns="http://www.w3.org/2000/svg">
<rect width="500" height="500" fill="black"/>
<path d="M346.042 295.021C346.042 312.521 351.021 319.5 364.042 319.5C393.063 319.5 411.542 282.521 411.542 221.021C411.542 127.021 343.042 82.0208 257.521 82.0208C169.542 82.0208 89.5208 141.021 89.5208 252.521C89.5208 359.021 159.521 417.021 267.021 417.021C303.521 417.021 328.021 413.021 365.5 400.521L373.542 434C336.542 446.021 297 449.5 266.521 449.5C125.521 449.5 50 372 50 252.5C50 132 137.521 50 258.021 50C383.521 50 450 125 450 217C450 295 425.521 354.5 348.521 354.5C313.5 354.5 290.521 340.5 287.521 309.479C278.521 343.979 254.521 354.5 222 354.5C178.5 354.5 142 320.979 142 253.5C142 185.5 174.021 143.5 231.521 143.5C262.021 143.5 281.021 155.5 289.479 174.5L304 148H346V295.021H346.042ZM284.562 229.021C284.562 201.542 264.042 190.021 247.042 190.021C228.542 190.021 208.062 205 208.062 249.021C208.062 284.021 223.563 303.521 247.042 303.521C263.542 303.521 284.562 293.021 284.562 264.021V229.021Z" fill="white"/>
</svg>
