<svg width="500" height="500" viewBox="0 0 500 500" fill="none" xmlns="http://www.w3.org/2000/svg">
<rect width="500" height="500" fill="#272626"/>
<path d="M183.667 450C220.467 450 250.333 420.133 250.333 383.333V316.667H183.667C146.867 316.667 117 346.533 117 383.333C117 420.133 146.867 450 183.667 450Z" fill="#0ACF83"/>
<path d="M117 250C117 213.2 146.867 183.333 183.667 183.333H250.333V316.667H183.667C146.867 316.667 117 286.8 117 250Z" fill="#A259FF"/>
<path d="M117 116.667C117 79.8667 146.867 50 183.667 50H250.333V183.333H183.667C146.867 183.333 117 153.467 117 116.667Z" fill="#F24E1E"/>
<path d="M250.333 50H317C353.8 50 383.667 79.8667 383.667 116.667C383.667 153.467 353.8 183.333 317 183.333H250.333V50Z" fill="#FF7262"/>
<path d="M383.667 250C383.667 286.8 353.8 316.667 317 316.667C280.2 316.667 250.333 286.8 250.333 250C250.333 213.2 280.2 183.333 317 183.333C353.8 183.333 383.667 213.2 383.667 250Z" fill="#1ABCFE"/>
</svg>
