<svg width="500" height="500" viewBox="0 0 500 500" fill="none" xmlns="http://www.w3.org/2000/svg">
<rect width="500" height="500" fill="#272626"/>
<path d="M104 372.864L106.429 369.478L221.005 152.125L221.248 149.825L170.746 54.9638C169.821 53.2291 168.375 51.8291 166.611 50.9617C164.847 50.0943 162.855 49.8036 160.916 50.1306C158.978 50.4576 157.192 51.3858 155.81 52.7839C154.428 54.1819 153.521 55.9791 153.217 57.9211L104 372.864Z" fill="#FFC24A"/>
<path d="M105.429 370.293L107.257 366.721L220.648 151.625L170.274 56.3925C169.444 54.7363 168.099 53.3939 166.441 52.5663C164.783 51.7387 162.902 51.4706 161.079 51.802C159.256 52.1335 157.59 53.0467 156.329 54.4048C155.069 55.7629 154.283 57.4929 154.088 59.3355L105.429 370.293Z" fill="#FFA712"/>
<path d="M258.064 221.571L295.666 182.998L258.05 111.266C257.222 109.723 255.991 108.432 254.488 107.533C252.985 106.633 251.266 106.158 249.514 106.158C247.762 106.158 246.043 106.633 244.54 107.533C243.037 108.432 241.806 109.723 240.978 111.266L220.877 149.582V152.854L258.064 221.571Z" fill="#F4BD62"/>
<path d="M257.393 220L293.952 182.57L257.393 112.852C256.794 111.343 255.772 110.039 254.45 109.098C253.127 108.157 251.56 107.618 249.938 107.547C248.317 107.476 246.709 107.876 245.309 108.698C243.909 109.52 242.777 110.73 242.049 112.181L221.848 151.168L221.248 153.154L257.393 220Z" fill="#FFA50E"/>
<path d="M104.029 372.878L105.129 371.764L109.115 370.15L255.693 224.114L257.55 219.057L220.991 149.368L104.029 372.878V372.878Z" fill="#F6820C"/>
<path d="M262.75 446.525L395.442 372.536L357.526 139.225C357.254 137.58 356.534 136.042 355.446 134.78C354.357 133.517 352.942 132.579 351.355 132.068C349.768 131.558 348.071 131.494 346.451 131.884C344.83 132.275 343.348 133.104 342.168 134.282L104 372.864L235.906 446.51C240.007 448.799 244.625 450 249.321 450C254.017 450 258.635 448.799 262.736 446.51" fill="#FDE068"/>
<path d="M394.228 371.921L356.626 140.368C356.56 138.795 356.028 137.277 355.098 136.006C354.169 134.735 352.883 133.768 351.404 133.228C349.925 132.688 348.319 132.599 346.789 132.973C345.26 133.346 343.875 134.164 342.811 135.325L105.429 372.421L235.878 445.282C239.946 447.551 244.527 448.743 249.185 448.743C253.844 448.743 258.425 447.551 262.493 445.282L394.228 371.921Z" fill="#FCCA3F"/>
<path d="M262.75 444.296C258.649 446.584 254.031 447.786 249.335 447.786C244.639 447.786 240.021 446.584 235.92 444.296L105.086 371.75L104 372.864L235.906 446.51C240.007 448.799 244.625 450 249.321 450C254.017 450 258.635 448.799 262.736 446.51L395.442 372.536L395.113 370.535L262.75 444.296Z" fill="#EEAB37"/>
</svg>
