<svg width="500" height="500" viewBox="0 0 500 500" fill="none" xmlns="http://www.w3.org/2000/svg">
<rect width="500" height="500" fill="black"/>
<path fill-rule="evenodd" clip-rule="evenodd" d="M250 55C139.5 55 50 144.5 50 255C50 343.5 107.25 418.25 186.75 444.75C196.75 446.5 200.5 440.5 200.5 435.25C200.5 430.5 200.25 414.75 200.25 398C150 407.25 137 385.75 133 374.5C130.75 368.75 121 351 112.5 346.25C105.5 342.5 95.5 333.25 112.25 333C128 332.75 139.25 347.5 143 353.5C161 383.75 189.75 375.25 201.25 370C203 357 208.25 348.25 214 343.25C169.5 338.25 123 321 123 244.5C123 222.75 130.75 204.75 143.5 190.75C141.5 185.75 134.5 165.25 145.5 137.75C145.5 137.75 162.25 132.5 200.5 158.25C216.5 153.75 233.5 151.5 250.5 151.5C267.5 151.5 284.5 153.75 300.5 158.25C338.75 132.25 355.5 137.75 355.5 137.75C366.5 165.25 359.5 185.75 357.5 190.75C370.25 204.75 378 222.5 378 244.5C378 321.25 331.25 338.25 286.75 343.25C294 349.5 300.25 361.5 300.25 380.25C300.25 407 300 428.5 300 435.25C300 440.5 303.75 446.75 313.75 444.75C353.453 431.345 387.953 405.828 412.394 371.789C436.836 337.751 449.988 296.905 450 255C450 144.5 360.5 55 250 55Z" fill="white"/>
</svg>
