<svg width="500" height="500" viewBox="0 0 500 500" fill="none" xmlns="http://www.w3.org/2000/svg">
<rect width="500" height="500" fill="black"/>
<path d="M442.439 232.179L267.781 57.5468C265.39 55.1543 262.55 53.2563 259.425 51.9614C256.3 50.6665 252.95 50 249.568 50C246.185 50 242.835 50.6665 239.71 51.9614C236.585 53.2563 233.746 55.1543 231.354 57.5468L195.103 93.7984L241.105 139.8C246.53 137.948 252.367 137.658 257.949 138.964C263.531 140.27 268.634 143.119 272.674 147.186C276.715 151.252 279.531 156.373 280.801 161.964C282.071 167.554 281.744 173.389 279.856 178.802L324.183 223.154C330.741 220.845 337.89 220.838 344.453 223.134C351.016 225.43 356.601 229.893 360.288 235.787C363.976 241.681 365.547 248.655 364.742 255.561C363.937 262.467 360.804 268.893 355.86 273.781C350.854 278.818 344.255 281.96 337.19 282.671C330.125 283.382 323.032 281.619 317.123 277.681C311.214 273.744 306.856 267.877 304.792 261.083C302.728 254.289 303.087 246.989 305.808 240.43L264.481 199.078V307.908C270.763 311.017 275.789 316.186 278.722 322.552C281.655 328.918 282.317 336.096 280.599 342.892C278.881 349.687 274.886 355.688 269.279 359.895C263.673 364.102 256.794 366.26 249.789 366.01C242.784 365.759 236.077 363.116 230.785 358.52C225.493 353.924 221.936 347.653 220.707 340.753C219.478 333.852 220.651 326.739 224.03 320.598C227.41 314.458 232.792 309.661 239.28 307.008V197.178C235.537 195.644 232.134 193.385 229.269 190.53C226.403 187.675 224.131 184.281 222.583 180.544C221.035 176.807 220.242 172.801 220.25 168.756C220.258 164.711 221.067 160.707 222.629 156.976L177.302 111.624L57.5468 231.379C55.1543 233.771 53.2563 236.61 51.9614 239.735C50.6665 242.86 50 246.21 50 249.593C50 252.975 50.6665 256.325 51.9614 259.45C53.2563 262.575 55.1543 265.415 57.5468 267.806L232.204 442.464C234.596 444.856 237.435 446.754 240.56 448.049C243.685 449.344 247.035 450.01 250.418 450.01C253.8 450.01 257.15 449.344 260.275 448.049C263.4 446.754 266.24 444.856 268.631 442.464L442.464 268.631C447.289 263.798 450 257.247 450 250.418C450 243.588 447.289 237.037 442.464 232.204" fill="#E44C30"/>
</svg>
