<svg width="500" height="500" viewBox="0 0 500 500" fill="none" xmlns="http://www.w3.org/2000/svg">
<rect width="500" height="500" fill="#1572B6"/>
<path d="M106.853 409.244L75 52H425L393.104 409.187L249.787 448.922L106.853 409.244Z" fill="#E44F26"/>
<path d="M250 418.557L365.816 386.449L393.062 81.2159H250V418.557Z" fill="#F1662A"/>
<path d="M250 213.703H192.021L188.024 168.837H250V125.019H140.138L141.187 136.785L151.946 257.52H250V213.703V213.703ZM250 327.492L249.802 327.549L201.009 314.38L197.89 279.436H153.902L160.041 348.217L249.802 373.138L250 373.081V327.492Z" fill="#EBEBEB"/>
<path d="M249.844 213.703V257.52H303.797L298.722 314.351L249.844 327.535V373.124L339.676 348.217L340.328 340.817L350.62 225.469L351.697 213.703H249.844V213.703ZM249.844 125.019V168.837H355.681L356.56 158.999L358.558 136.785L359.607 125.019H249.844V125.019Z" fill="white"/>
</svg>
