<svg width="500" height="500" viewBox="0 0 500 500" fill="none" xmlns="http://www.w3.org/2000/svg">
<rect width="500" height="500" fill="#9A405B"/>
<path d="M264.357 196.651L214.662 50H425.791L375.924 197.077C373.779 197.591 371.669 198.244 369.609 199.034L320.348 98.5414L270.943 198.44C268.791 197.695 266.59 197.097 264.357 196.651ZM101.992 436.713C168.399 483.358 242.058 393.101 342.391 381.73C400.008 378.316 439.17 343.044 416.856 288.442C375.368 313.996 336.594 280.51 336.865 246.908H305.339C304.304 276.908 281.739 300.509 246.762 297.001C219.384 337.958 187.652 360.969 151.648 372.666C127.313 361.436 104.412 334.08 114.795 297.543C110.277 297.039 105.847 295.927 101.627 294.237C68.1563 356.737 64.0204 406.13 101.992 436.713V436.713ZM151.43 246.913C151.43 223.175 125.556 208.258 104.97 220.127C84.3829 231.996 84.3813 261.83 104.97 273.698C125.556 285.568 151.43 270.651 151.43 246.913ZM285.343 246.619C285.343 222.881 259.468 207.964 238.881 219.833C218.295 231.703 218.294 261.536 238.881 273.404C259.469 285.273 285.342 270.357 285.342 246.619H285.343ZM418.752 246.619C418.752 222.881 392.877 207.964 372.291 219.833C351.704 231.703 351.703 261.536 372.291 273.404C392.878 285.273 418.751 270.357 418.751 246.619H418.752Z" fill="white"/>
</svg>
