<svg width="500" height="500" viewBox="0 0 500 500" fill="none" xmlns="http://www.w3.org/2000/svg">
<path d="M0 0H500V500H0V0Z" fill="#F7DF1E"/>
<path d="M131.469 417.836L169.73 394.68C177.113 407.768 183.828 418.842 199.936 418.842C215.375 418.842 225.111 412.803 225.111 389.311V229.549H272.098V389.975C272.098 438.641 243.57 460.793 201.949 460.793C164.361 460.793 142.543 441.326 131.467 417.832M297.619 412.801L335.877 390.65C345.949 407.098 359.039 419.18 382.195 419.18C401.666 419.18 414.08 409.445 414.08 396.02C414.08 379.91 401.326 374.203 379.846 364.809L368.102 359.77C334.201 345.342 311.715 327.217 311.715 288.955C311.715 253.713 338.564 226.861 380.52 226.861C410.391 226.861 431.871 237.268 447.309 264.453L410.723 287.949C402.666 273.518 393.943 267.812 380.518 267.812C366.756 267.812 358.029 276.539 358.029 287.949C358.029 302.045 366.756 307.754 386.893 316.48L398.639 321.514C438.58 338.633 461.066 356.084 461.066 395.35C461.066 437.643 427.84 460.799 383.201 460.799C339.57 460.799 311.377 439.99 297.617 412.803" fill="black"/>
</svg>
