<svg width="500" height="500" viewBox="0 0 500 500" fill="none" xmlns="http://www.w3.org/2000/svg">
<rect width="500" height="500" fill="black"/>
<path fill-rule="evenodd" clip-rule="evenodd" d="M50 83.4182C50 74.5552 53.5208 66.0551 59.788 59.788C66.0551 53.5209 74.5551 50 83.4182 50H416.545C420.938 49.9929 425.288 50.8521 429.348 52.5285C433.408 54.205 437.097 56.6657 440.204 59.7698C443.312 62.8739 445.777 66.5605 447.458 70.6184C449.138 74.6763 450.002 79.026 450 83.4182V416.545C450.005 420.939 449.143 425.29 447.465 429.349C445.786 433.409 443.324 437.098 440.218 440.206C437.113 443.313 433.425 445.777 429.366 447.458C425.307 449.139 420.957 450.002 416.564 450H83.4182C79.0281 450 74.6811 449.135 70.6254 447.454C66.5697 445.774 62.8849 443.311 59.7815 440.206C56.6781 437.101 54.2169 433.414 52.5386 429.358C50.8602 425.301 49.9976 420.954 50 416.564V83.4182ZM208.327 202.509H262.491V229.709C270.309 214.073 290.309 200 320.364 200C377.982 200 391.636 231.145 391.636 288.291V394.145H333.327V301.309C333.327 268.764 325.509 250.4 305.655 250.4C278.109 250.4 266.655 270.2 266.655 301.309V394.145H208.327V202.509ZM108.327 391.655H166.655V200H108.327V391.636V391.655ZM175 137.491C175.11 142.485 174.221 147.451 172.386 152.097C170.551 156.743 167.806 160.975 164.313 164.546C160.82 168.117 156.649 170.954 152.045 172.891C147.44 174.828 142.495 175.826 137.5 175.826C132.505 175.826 127.56 174.828 122.955 172.891C118.351 170.954 114.18 168.117 110.687 164.546C107.194 160.975 104.449 156.743 102.614 152.097C100.779 147.451 99.89 142.485 100 137.491C100.216 127.688 104.262 118.36 111.271 111.503C118.28 104.647 127.695 100.808 137.5 100.808C147.305 100.808 156.72 104.647 163.729 111.503C170.738 118.36 174.784 127.688 175 137.491Z" fill="white"/>
</svg>
