<svg width="500" height="500" viewBox="0 0 500 500" fill="none" xmlns="http://www.w3.org/2000/svg">
<rect width="500" height="500" fill="black"/>
<circle cx="250" cy="250" r="200" fill="black"/>
<path d="M236.902 50.1076C236.042 50.1857 233.305 50.4591 230.841 50.6544C174.028 55.7763 120.811 86.4263 87.1062 133.536C68.3375 159.729 56.3344 189.442 51.7984 220.914C50.1953 231.898 50 235.143 50 250.039C50 264.934 50.1953 268.179 51.7984 279.164C62.6687 354.265 116.119 417.365 188.611 440.743C201.594 444.928 215.278 447.781 230.841 449.501C236.902 450.165 263.098 450.165 269.159 449.501C296.022 446.529 318.778 439.884 341.222 428.429C344.663 426.67 345.328 426.201 344.858 425.809C344.545 425.575 329.883 405.911 312.288 382.14L280.303 338.94L240.225 279.634C218.172 247.028 200.03 220.365 199.873 220.365C199.717 220.326 199.561 246.678 199.483 278.851C199.364 335.187 199.327 337.454 198.622 338.784C197.606 340.7 196.823 341.483 195.181 342.342C193.93 342.967 192.834 343.084 186.931 343.084H180.166L178.369 341.951C177.254 341.253 176.349 340.267 175.748 339.097L174.927 337.337L175.005 258.953L175.122 180.528L176.334 179.003C176.959 178.183 178.289 177.128 179.228 176.618C180.831 175.837 181.456 175.759 188.22 175.759C196.197 175.759 197.527 176.072 199.598 178.339C200.186 178.964 221.886 211.648 247.848 251.017C273.812 290.384 309.317 344.14 326.755 370.529L358.427 418.498L360.03 417.443C374.223 408.217 389.237 395.081 401.123 381.397C426.422 352.35 442.727 316.931 448.202 279.165C449.805 268.179 450 264.934 450 250.04C450 235.143 449.805 231.9 448.202 220.914C437.331 145.812 383.881 82.7122 311.389 59.3341C298.602 55.1904 284.995 52.3357 269.745 50.6154C265.992 50.2247 240.147 49.7951 236.902 50.1076ZM318.778 171.067C320.655 172.004 322.18 173.804 322.727 175.681C323.039 176.697 323.117 198.434 323.039 247.42L322.923 317.712L310.528 298.712L298.094 279.712V228.615C298.094 195.579 298.25 177.009 298.484 176.111C299.109 173.922 300.48 172.201 302.356 171.184C303.959 170.364 304.545 170.286 310.684 170.286C316.472 170.286 317.488 170.364 318.778 171.067Z" fill="white"/>
</svg>
