<svg width="500" height="500" viewBox="0 0 500 500" fill="none" xmlns="http://www.w3.org/2000/svg">
<rect width="500" height="500" fill="#272626"/>
<path d="M250 468.75C244.098 468.752 238.299 467.2 233.187 464.25L179.687 432.578C171.703 428.109 175.594 426.531 178.234 425.609C186.726 422.986 194.857 419.312 202.437 414.672C203.072 414.378 203.771 414.252 204.468 414.303C205.165 414.355 205.838 414.584 206.422 414.969L247.531 439.391C248.297 439.796 249.15 440.007 250.016 440.007C250.882 440.007 251.734 439.796 252.5 439.391L412.812 346.859C413.563 346.41 414.183 345.773 414.613 345.012C415.043 344.25 415.268 343.39 415.266 342.516V157.422C415.266 156.533 415.038 155.66 414.603 154.885C414.168 154.111 413.54 153.462 412.781 153L252.469 60.5469C251.713 60.1211 250.86 59.8974 249.992 59.8974C249.125 59.8974 248.272 60.1211 247.516 60.5469L87.2969 153.031C86.5326 153.483 85.898 154.125 85.4546 154.894C85.0111 155.663 84.7738 156.534 84.7656 157.422V342.437C84.7678 343.31 85.0019 344.166 85.4439 344.919C85.886 345.671 86.5201 346.292 87.2812 346.719L131.25 372.094C155.078 384 169.672 369.969 169.672 355.875V173.203C169.672 171.96 170.166 170.768 171.045 169.889C171.924 169.009 173.116 168.516 174.359 168.516H194.672C195.915 168.516 197.107 169.009 197.986 169.889C198.865 170.768 199.359 171.96 199.359 173.203V355.891C199.359 387.688 182.047 405.891 151.891 405.891C138.881 406.117 126.075 402.638 114.969 395.859L72.8281 371.687C67.7123 368.708 63.4674 364.439 60.5173 359.307C57.5672 354.174 56.0149 348.358 56.0156 342.437V157.422C56.0004 151.493 57.5461 145.664 60.4972 140.521C63.4484 135.379 67.7012 131.103 72.8281 128.125L233.156 35.5625C238.321 32.737 244.113 31.2561 250 31.2561C255.887 31.2561 261.679 32.737 266.844 35.5625L427.156 128.125C432.271 131.098 436.517 135.361 439.47 140.488C442.423 145.615 443.98 151.427 443.984 157.344V342.437C443.976 348.357 442.418 354.172 439.466 359.303C436.513 364.435 432.27 368.704 427.156 371.687L266.844 464.25C261.722 467.205 255.913 468.757 250 468.75V468.75Z" fill="#83CD29"/>
<path d="M219.594 280.516C219.594 279.272 220.088 278.08 220.967 277.201C221.846 276.322 223.038 275.828 224.281 275.828H245.016C246.123 275.832 247.194 276.228 248.038 276.946C248.882 277.663 249.444 278.657 249.625 279.75C252.75 300.859 262.125 311.5 304.516 311.5C338.281 311.5 352.672 303.859 352.672 285.937C352.672 275.609 348.594 267.938 296.109 262.797C252.234 258.453 225.109 248.734 225.109 213.672C225.109 181.328 252.375 162.031 298.078 162.031C349.438 162.031 374.859 179.859 378.078 218.109C378.127 218.748 378.045 219.39 377.837 219.995C377.628 220.601 377.298 221.157 376.866 221.63C376.434 222.103 375.909 222.483 375.325 222.745C374.741 223.008 374.109 223.147 373.469 223.156H352.594C351.547 223.142 350.534 222.777 349.719 222.12C348.903 221.463 348.331 220.551 348.094 219.531C343.109 197.328 330.906 190.234 298.094 190.234C261.219 190.234 256.938 203.078 256.938 212.703C256.938 224.359 262 227.766 311.781 234.344C361.047 240.859 384.453 250.078 384.453 284.703C384.453 319.641 355.328 339.641 304.531 339.641C234.297 339.734 219.594 307.531 219.594 280.516V280.516Z" fill="#83CD29"/>
</svg>
