<svg width="500" height="500" viewBox="0 0 500 500" fill="none" xmlns="http://www.w3.org/2000/svg">
<rect width="500" height="500" fill="black"/>
<path d="M250 50C139.543 50 50 139.543 50 250C50 360.457 139.543 450 250 450C360.457 450 450 360.457 450 250C450 139.543 360.457 50 250 50ZM178.125 129.443C182.246 129.2 185.97 131.663 188.794 136.035L216.138 187.89C219.017 194.035 217.381 200.614 213.086 205.005L200.562 217.529C199.789 218.588 199.28 219.781 199.268 221.093C204.071 239.685 218.64 256.834 231.495 268.628C244.349 280.421 258.164 296.388 276.099 300.171C278.315 300.789 281.031 301.011 282.617 299.536L297.168 284.717C302.191 280.91 309.457 279.065 314.819 282.178H315.063L364.404 311.304C371.646 315.844 372.397 324.619 367.211 329.956L333.228 363.672C328.209 368.819 321.542 370.549 315.064 370.557C286.415 369.698 259.345 355.637 237.11 341.187C200.613 314.636 167.136 281.705 146.118 241.919C138.058 225.236 128.589 203.949 129.492 185.328C129.573 178.322 131.468 171.459 136.402 166.944L170.386 132.96C173.033 130.707 175.652 129.589 178.125 129.443Z" fill="white"/>
</svg>
