<svg width="500" height="500" viewBox="0 0 500 500" fill="none" xmlns="http://www.w3.org/2000/svg">
<rect width="500" height="500" fill="#272626"/>
<path d="M378.88 187.35C374.623 185.889 370.33 184.536 366.005 183.292C366.731 180.323 367.4 177.39 367.994 174.509C377.741 127.195 371.369 89.0779 349.605 76.5279C328.737 64.4966 294.611 77.0419 260.145 107.037C256.749 109.999 253.427 113.045 250.184 116.175C248.013 114.094 245.804 112.053 243.558 110.054C207.436 77.9825 171.23 64.4654 149.489 77.0513C128.641 89.12 122.467 124.953 131.242 169.793C132.115 174.234 133.101 178.653 134.198 183.043C129.073 184.5 124.128 186.05 119.395 187.7C77.0453 202.465 50 225.604 50 249.606C50 274.395 79.0344 299.259 123.144 314.336C126.72 315.553 130.326 316.681 133.958 317.718C132.778 322.448 131.731 327.209 130.817 331.997C122.452 376.059 128.984 411.045 149.777 423.037C171.252 435.422 207.295 422.693 242.391 392.014C245.236 389.52 248.02 386.955 250.738 384.322C254.249 387.71 257.855 391 261.55 394.187C295.547 423.44 329.122 435.253 349.894 423.228C371.348 410.808 378.322 373.223 369.269 327.497C368.556 323.914 367.756 320.35 366.87 316.806C369.402 316.056 371.886 315.284 374.308 314.481C420.164 299.289 450 274.726 450 249.606C450 225.517 422.081 202.222 378.88 187.35V187.35ZM368.934 298.262C366.747 298.986 364.503 299.684 362.216 300.364C357.153 284.337 350.322 267.297 341.961 249.689C349.939 232.501 356.508 215.678 361.428 199.756C365.52 200.94 369.491 202.189 373.319 203.506C410.334 216.25 432.912 235.089 432.912 249.606C432.912 265.068 408.528 285.142 368.934 298.262V298.262ZM352.506 330.815C356.509 351.034 357.08 369.315 354.428 383.608C352.047 396.45 347.256 405.011 341.331 408.44C328.727 415.737 301.769 406.253 272.695 381.234C269.258 378.271 265.904 375.212 262.637 372.062C273.909 359.736 285.173 345.406 296.167 329.49C315.505 327.775 333.773 324.968 350.341 321.139C351.139 324.347 351.861 327.573 352.506 330.815V330.815ZM186.369 407.179C174.053 411.528 164.244 411.653 158.314 408.234C145.697 400.958 140.452 372.865 147.606 335.184C148.457 330.731 149.431 326.303 150.527 321.904C166.911 325.529 185.047 328.136 204.43 329.708C215.498 345.281 227.087 359.595 238.767 372.129C236.285 374.531 233.744 376.871 231.147 379.148C215.627 392.714 200.075 402.339 186.369 407.179V407.179ZM128.672 298.167C109.167 291.5 93.0594 282.836 82.0188 273.381C72.0969 264.886 67.0891 256.45 67.0891 249.606C67.0891 235.04 88.8031 216.462 125.02 203.836C129.416 202.304 134.016 200.859 138.789 199.503C143.795 215.784 150.361 232.808 158.284 250.022C150.258 267.49 143.598 284.786 138.544 301.259C135.228 300.309 131.937 299.278 128.672 298.167V298.167ZM148.013 166.511C140.495 128.093 145.487 99.1138 158.052 91.8404C171.433 84.0935 201.023 95.1388 232.212 122.833C234.246 124.643 236.247 126.489 238.214 128.372C226.592 140.851 215.109 155.059 204.139 170.54C185.327 172.284 167.319 175.084 150.762 178.836C149.742 174.752 148.825 170.642 148.013 166.512V166.511ZM320.555 209.117C316.644 202.362 312.588 195.692 308.391 189.112C321.153 190.726 333.381 192.868 344.864 195.487C341.417 206.537 337.12 218.089 332.063 229.933C328.366 222.918 324.529 215.978 320.555 209.117V209.117ZM250.192 140.584C258.073 149.123 265.967 158.656 273.731 169C257.981 168.256 242.205 168.253 226.455 168.99C234.227 158.742 242.188 149.222 250.192 140.584ZM179.378 209.234C175.454 216.04 171.689 222.937 168.086 229.918C163.111 218.117 158.853 206.512 155.377 195.306C166.789 192.753 178.959 190.665 191.641 189.081C187.396 195.701 183.307 202.42 179.378 209.233V209.234ZM192.005 311.347C178.903 309.884 166.55 307.904 155.141 305.42C158.672 294.014 163.023 282.162 168.106 270.108C171.723 277.094 175.504 283.995 179.445 290.804C183.498 297.804 187.695 304.661 192.005 311.347ZM250.664 359.831C242.564 351.093 234.486 341.426 226.597 331.029C234.256 331.329 242.064 331.483 250 331.483C258.153 331.483 266.213 331.3 274.145 330.947C266.356 341.531 258.492 351.212 250.664 359.831ZM332.223 269.492C337.57 281.679 342.077 293.468 345.655 304.679C334.058 307.326 321.536 309.458 308.342 311.04C312.57 304.338 316.664 297.552 320.622 290.687C324.646 283.709 328.514 276.642 332.223 269.492V269.492ZM305.82 282.15C299.761 292.675 293.361 303.001 286.631 313.111C274.44 313.974 262.222 314.403 250 314.397C237.552 314.397 225.444 314.009 213.784 313.253C206.878 303.167 200.357 292.823 194.233 282.243H194.234C188.139 271.72 182.446 260.969 177.167 250.014C182.433 239.056 188.109 228.3 194.183 217.768L194.181 217.77C200.253 207.236 206.723 196.936 213.577 186.893C225.472 185.993 237.67 185.525 249.998 185.525H250C262.384 185.525 274.598 185.998 286.491 186.904C293.275 196.932 299.704 207.197 305.764 217.678C311.858 228.186 317.609 238.89 323.008 249.772C317.665 260.765 311.932 271.564 305.82 282.15V282.15ZM341.07 91.331C354.464 99.056 359.673 130.208 351.258 171.059C350.72 173.665 350.117 176.32 349.461 179.012C332.864 175.181 314.844 172.333 295.977 170.562C284.986 154.911 273.597 140.681 262.164 128.362C265.16 125.474 268.228 122.661 271.364 119.925C300.895 94.2263 328.495 84.0794 341.07 91.331V91.331ZM250 213.887C269.727 213.887 285.719 229.879 285.719 249.606C285.719 269.333 269.727 285.325 250 285.325C230.273 285.325 214.281 269.333 214.281 249.606C214.281 229.879 230.273 213.887 250 213.887V213.887Z" fill="#00D8FF"/>
</svg>
