<svg width="500" height="500" viewBox="0 0 500 500" fill="none" xmlns="http://www.w3.org/2000/svg">
<rect width="500" height="500" fill="#33A9DC"/>
<path d="M394.431 272.445C380.477 272.517 368.348 275.878 358.194 280.846C354.466 273.466 350.74 266.892 350.084 262.069C349.352 256.444 348.476 253.01 349.352 246.288C350.23 239.566 354.175 229.995 354.101 229.265C354.029 228.534 353.224 225.1 345.188 225.028C337.151 224.954 330.21 226.562 329.406 228.68C328.603 230.799 327.069 235.621 326.046 240.588C324.657 247.896 309.973 273.977 301.572 287.64C298.867 282.308 296.53 277.631 296.017 273.905C295.287 268.28 294.41 264.846 295.287 258.124C296.165 251.402 300.11 241.832 300.036 241.1C299.963 240.37 299.159 236.936 291.123 236.864C283.085 236.79 276.144 238.398 275.342 240.516C274.538 242.636 273.66 247.603 271.981 252.425C270.299 257.248 250.792 300.793 245.678 312.043C243.612 316.597 241.444 321.103 239.176 325.56C239.176 325.56 239.102 325.78 238.883 326.145C238.171 327.542 237.44 328.93 236.693 330.309V330.381C235.596 332.355 234.427 334.181 233.843 334.181C233.404 334.181 232.6 328.921 233.988 321.761C236.91 306.638 243.851 283.112 243.779 282.308C243.779 281.869 245.094 277.778 239.25 275.658C233.55 273.54 231.505 277.047 230.993 277.047C230.482 277.047 230.115 278.289 230.115 278.289C230.115 278.289 236.473 251.841 217.988 251.841C206.445 251.841 190.517 264.481 182.626 275.878C173.656 280.759 164.694 285.654 155.739 290.564C151.431 292.975 146.973 295.386 142.808 297.65C142.515 297.359 142.224 296.992 141.931 296.701C119.574 272.81 78.2222 255.932 79.9755 223.859C80.6336 212.169 84.6509 181.483 159.393 144.222C220.91 113.901 269.862 122.302 278.337 140.933C290.465 167.528 252.109 216.918 188.544 224.077C164.288 226.781 151.575 217.429 148.361 213.922C145 210.268 144.488 210.049 143.246 210.781C141.201 211.878 142.515 215.165 143.246 217.064C145.146 222.031 152.963 230.799 166.187 235.11C177.877 238.908 206.298 241.028 240.71 227.731C279.213 212.825 309.315 171.4 300.475 136.696C291.633 101.48 233.184 89.864 177.877 109.517C145 121.208 109.346 139.619 83.7014 163.583C53.2345 192.076 48.4118 216.844 50.3844 227.22C57.4728 264.042 108.25 288.006 128.561 305.76C127.538 306.345 126.587 306.857 125.785 307.296C115.629 312.336 76.9061 332.573 67.2623 353.981C56.3039 378.237 69.0171 395.627 77.4184 397.963C103.501 405.197 130.315 392.193 144.707 370.711C159.1 349.232 157.347 321.322 150.699 308.537C150.625 308.391 150.553 308.244 150.406 308.098C153.037 306.564 155.739 304.956 158.37 303.422C163.205 300.564 168.102 297.811 173.056 295.165C170.571 301.961 168.744 310.071 167.868 321.761C166.771 335.497 172.396 353.323 179.776 360.336C183.065 363.407 186.936 363.479 189.421 363.479C198.042 363.479 201.915 356.319 206.226 347.844C211.486 337.47 216.235 325.414 216.235 325.414C216.235 325.414 210.317 358 226.391 358C232.235 358 238.153 350.401 240.784 346.529V346.601C240.784 346.601 240.929 346.382 241.222 345.871C241.807 344.921 242.172 344.335 242.172 344.335V344.191C244.51 340.099 249.771 330.82 257.588 315.404C267.67 295.532 277.388 270.691 277.388 270.691C277.388 270.691 278.265 276.755 281.259 286.838C283.014 292.756 286.665 299.258 289.589 305.541C287.251 308.83 285.789 310.655 285.789 310.655L285.863 310.729C283.962 313.212 281.917 315.915 279.652 318.547C271.688 328.044 262.191 338.931 260.875 342.071C259.34 345.797 259.706 348.502 262.63 350.694C264.748 352.301 268.546 352.519 272.419 352.301C279.58 351.789 284.62 350.036 287.104 348.94C290.977 347.552 295.507 345.432 299.743 342.291C307.562 336.519 312.309 328.263 311.872 317.378C311.653 311.387 309.68 305.395 307.269 299.769C308 298.747 308.657 297.724 309.389 296.701C321.735 278.654 331.307 258.854 331.307 258.854C331.307 258.854 332.184 264.918 335.179 275.002C336.64 280.116 339.636 285.669 342.265 291.074C330.649 300.5 323.489 311.459 320.931 318.619C316.33 331.917 319.908 337.907 326.704 339.295C329.771 339.953 334.155 338.491 337.371 337.103C341.462 335.788 346.284 333.524 350.888 330.162C358.706 324.391 366.23 316.353 365.791 305.469C365.572 300.5 364.257 295.604 362.43 290.855C372.294 286.766 385.007 284.5 401.225 286.399C436.004 290.49 442.871 312.189 441.555 321.323C440.241 330.455 432.934 335.423 430.525 336.957C428.112 338.493 427.31 339.004 427.529 340.099C427.82 341.706 428.989 341.634 431.035 341.341C433.886 340.83 449.302 333.961 449.958 317.157C451.055 295.678 430.597 272.225 394.431 272.445V272.445ZM126.15 362.895C114.606 375.46 98.533 380.21 91.592 376.192C84.1401 371.88 87.0623 353.323 101.236 340.027C109.856 331.917 120.962 324.39 128.342 319.788C130.022 318.765 132.506 317.305 135.502 315.478C136.013 315.185 136.306 315.039 136.306 315.039L138.059 313.942C143.246 332.938 138.279 349.67 126.15 362.895V362.895ZM210.171 305.76C206.152 315.551 197.751 340.611 192.637 339.223C188.253 338.054 185.548 319.058 191.759 300.281C194.901 290.855 201.549 279.604 205.422 275.221C211.705 268.206 218.646 265.867 220.326 268.719C222.445 272.445 212.654 299.623 210.171 305.76V305.76ZM279.506 338.93C277.825 339.807 276.219 340.392 275.487 339.953C274.976 339.66 276.219 338.491 276.219 338.491C276.219 338.491 284.913 329.14 288.346 324.902C290.32 322.419 292.657 319.497 295.142 316.208V317.157C295.142 328.337 284.327 335.862 279.505 338.93H279.506ZM332.987 326.729C331.744 325.852 331.964 322.929 336.128 313.796C337.736 310.216 341.534 304.226 348.038 298.454C348.768 300.792 349.28 303.057 349.206 305.176C349.133 319.277 339.052 324.537 332.987 326.729Z" fill="#CD6799"/>
</svg>
