<svg width="500" height="500" viewBox="0 0 500 500" fill="none" xmlns="http://www.w3.org/2000/svg">
<rect width="500" height="500" fill="#F7DF1E"/>
<path d="M279.219 444.249C279.819 442.892 281.333 441.949 282.433 440.807C299.216 423.209 316.143 405.768 332.698 387.956C337.879 383.171 341.882 377.253 344.394 370.664C346.907 364.075 347.861 356.994 347.182 349.974C346.662 346.969 345.98 343.993 345.139 341.061C340.626 345.346 336.426 349.246 332.198 353.174C325.628 359.288 319.085 365.43 312.458 371.472C308.55 375.457 303.524 378.162 298.046 379.231C292.568 380.299 286.895 379.681 281.776 377.457C276.593 375.553 272.085 372.169 268.809 367.725C265.533 363.281 263.635 357.973 263.349 352.46C263.196 351.751 262.99 351.054 262.735 350.374C257.693 354.66 252.865 358.602 248.08 362.659L148.62 446.934C147.934 447.52 147.192 448.249 146.549 448.82H279.147L278.947 448.691C278.233 448.191 278.604 445.563 279.219 444.249V444.249ZM140.478 444.249C141.657 442.713 143.081 441.381 144.692 440.307L282.333 323.535C291.722 315.564 301.069 307.551 310.372 299.495C311.522 298.693 312.423 297.584 312.972 296.295C315.197 286.598 315.513 276.56 313.9 266.742C312.472 267.741 311.701 268.17 311.044 268.87C299.773 278.954 288.56 289.125 277.233 299.152C273.481 302.929 268.628 305.418 263.371 306.262C258.115 307.107 252.726 306.263 247.98 303.851C243.137 301.565 239.085 297.89 236.337 293.294C233.59 288.698 232.273 283.388 232.553 278.04V273.412C230.482 274.926 228.968 275.94 227.553 277.083C172.465 321.192 117.386 365.268 62.3159 409.31C59.8305 411.296 56.8594 415.724 53.6026 411.424C50.3459 407.125 55.3024 405.354 57.8021 403.354C116.509 356.245 175.245 309.179 234.01 262.156C243.58 254.486 244.209 251.272 237.981 239.088L234.267 242.573C224.082 252.043 213.784 261.385 203.756 271.012C199.643 274.98 194.491 277.703 188.896 278.868C183.302 280.032 177.491 279.59 172.137 277.593C166.782 275.596 162.101 272.126 158.635 267.582C155.169 263.038 153.059 257.607 152.548 251.915C150.648 253.343 149.006 254.386 147.449 255.6L60.3161 323.135C58.8133 324.609 57.0995 325.851 55.231 326.82C53.8208 327.246 52.3065 327.171 50.9458 326.606V448.891H140.307C139.974 448.157 139.817 447.356 139.847 446.55C139.876 445.745 140.093 444.957 140.478 444.249V444.249Z" fill="#FFCEBF"/>
<path d="M381.878 56.0522C379.45 64.0084 377.093 71.9789 374.964 80.0208C372.999 85.7038 373.227 91.9163 375.606 97.4394C377.984 102.963 382.34 107.398 387.82 109.874C404.581 118.685 423.468 122.642 442.356 121.302V57.4092C442.147 56.0084 442.224 54.5795 442.585 53.2097C442.985 52.4349 443.49 51.7187 444.085 51.0814H381.821C382.778 52.1955 382.449 54.1524 381.878 56.0522V56.0522Z" fill="#FF6196"/>
<path d="M256.821 193.307C256.525 200.439 254.031 207.304 249.679 212.962C234.124 233.042 216.261 251.222 196.457 267.127C193.264 270.083 189.216 271.952 184.894 272.465C180.573 272.979 176.2 272.11 172.403 269.984C168.623 268.369 165.437 265.624 163.281 262.125C161.124 258.626 160.105 254.545 160.361 250.443C160.819 245.406 162.911 240.655 166.318 236.916C188.463 215.801 212.456 196.712 238.009 179.88C239.683 178.568 241.727 177.815 243.852 177.728C245.977 177.641 248.075 178.224 249.851 179.395C252.184 180.844 254.071 182.911 255.301 185.366C256.532 187.822 257.058 190.571 256.821 193.307V193.307ZM239.709 279.883C239.378 276.725 239.783 273.534 240.893 270.56C242.004 267.586 243.789 264.91 246.108 262.742C267.791 242.743 291.055 224.529 315.672 208.277C316.414 207.806 317.1 207.334 317.914 206.849C320.064 205.296 322.67 204.503 325.32 204.593C327.971 204.684 330.516 205.653 332.555 207.349C334.528 209.02 335.925 211.271 336.545 213.782C337.166 216.292 336.979 218.934 336.012 221.333C332.898 231.706 327.15 241.095 319.328 248.587C303.443 264.236 287.252 279.57 270.763 294.581C268.279 297.135 265.017 298.79 261.49 299.287C257.963 299.783 254.371 299.092 251.279 297.324C248.03 295.635 245.264 293.149 243.24 290.098C241.216 287.047 240.001 283.532 239.709 279.883V279.883ZM342.783 289.325C338.783 293.61 334.669 297.695 330.827 302.08C329.671 303.775 328.713 305.596 327.97 307.508C330.084 308.137 332.555 309.794 334.269 309.208C342.997 306.28 351.51 302.766 361.095 299.066C359.009 303.866 357.438 308.294 355.224 312.35C346.103 327.679 334.68 341.515 321.357 353.374C316.291 358.259 311.029 362.93 305.573 367.387C302.683 369.785 299.208 371.372 295.504 371.986C291.8 372.601 287.999 372.22 284.49 370.883C280.981 369.547 277.89 367.302 275.533 364.378C273.176 361.455 271.638 357.958 271.077 354.245C270.848 352.181 271.03 350.092 271.614 348.099C272.197 346.105 273.17 344.247 274.476 342.633C293.914 321.524 316.129 303.154 340.511 288.025C340.808 287.91 341.122 287.847 341.44 287.839L342.783 289.325Z" fill="#FF87AF"/>
<path d="M375.55 232.431L399.99 123.873L417.131 127.886L408.289 154.755C400.033 179.752 391.677 204.749 383.621 229.774C382.049 234.402 379.992 235.259 375.55 232.431V232.431ZM347.953 296.281C350.539 286.411 353.11 277.283 355.281 268.056C357.397 259.107 361.422 250.721 367.08 243.473C370.551 238.916 374.45 240.73 378.435 241.716C382.121 242.616 383.049 245.315 383.206 248.858C383.787 258.654 380.804 268.33 374.807 276.097C367.668 284.948 358.44 291.884 347.953 296.281V296.281Z" fill="#FF6196"/>
<path d="M449.813 62.78C450.026 59.5987 449.945 56.4046 449.57 53.2382C449.275 52.3538 448.692 51.5942 447.913 51.0814C447.279 50.5658 446.537 50.1996 445.742 50.0101C445.285 49.9244 444.642 50.3957 444.028 51.0671C443.433 51.7044 442.928 52.4206 442.528 53.1954C442.167 54.5652 442.09 55.9941 442.299 57.3949V121.273C423.411 122.614 404.524 118.656 387.763 109.846C382.283 107.369 377.927 102.934 375.549 97.4109C373.17 91.8878 372.942 85.6752 374.907 79.9922C377.036 71.9503 379.393 63.9798 381.821 56.0236C382.392 54.1239 382.721 52.1669 381.821 51.0528C381.32 50.5104 380.629 50.1828 379.892 50.1386C378.949 50.1488 378.035 50.4701 377.293 51.0528C376.225 51.6917 375.374 52.6374 374.85 53.7668C371.993 62.3372 369.479 70.9933 367.294 79.7351C366.469 83.18 366.247 86.7417 366.637 90.2624C367.19 96.6327 369.559 102.711 373.463 107.775C377.367 112.838 382.643 116.676 388.663 118.83C391.363 119.959 392.948 121.073 392.191 124.63C391.148 129.144 390.134 133.657 389.106 138.185C382.107 168.867 375.145 199.564 368.222 230.274C368.027 231.644 367.425 232.923 366.494 233.945C361.931 237.572 358.097 242.031 355.195 247.087C351.498 253.758 348.939 260.999 347.625 268.513C347.373 270.909 346.507 273.2 345.11 275.165C343.714 277.129 341.835 278.7 339.654 279.726C333.698 282.74 328.227 286.639 321.614 290.696C322.055 282.743 321.969 274.769 321.357 266.827C320.853 264.384 320.96 261.855 321.668 259.463C322.375 257.071 323.662 254.891 325.413 253.115C334.125 244.484 340.335 233.654 343.383 221.775C344.293 219.022 344.542 216.093 344.111 213.225C343.68 210.357 342.58 207.631 340.9 205.267C339.22 202.903 337.008 200.968 334.442 199.617C331.875 198.267 329.027 197.539 326.127 197.493C321.433 197.44 316.823 198.75 312.858 201.264C299.228 210.571 285.835 220.221 272.691 230.203C264.878 236.088 257.521 242.601 249.951 248.772C249.624 248.422 249.342 248.033 249.108 247.615C248.963 246.564 248.68 245.536 248.265 244.558C241.937 234.788 246.323 227.689 253.193 220.39C260.351 212.887 264.306 202.891 264.221 192.522C264.442 187.238 262.788 182.047 259.55 177.866C257.825 175.744 255.699 173.982 253.293 172.681C249.876 170.811 245.969 170.031 242.096 170.444C238.223 170.858 234.569 172.446 231.624 174.995L227.639 177.852C218.54 184.366 209.327 190.708 200.571 197.678C187.788 207.884 175.28 218.429 163.061 229.303C157.347 234.345 153.177 241.23 147.249 245.915C116.338 270.327 85.0989 294.295 53.974 318.421C52.9038 319.06 51.9197 319.832 51.0458 320.721C50.9558 320.851 50.8792 320.99 50.8172 321.135C50.1602 322.663 49.6031 325.192 50.3744 326.12C50.5635 326.322 50.792 326.482 51.0458 326.592C52.4064 327.156 53.9208 327.232 55.331 326.806C57.1995 325.836 58.9133 324.594 60.4161 323.121L147.549 255.586C149.106 254.372 150.748 253.272 152.648 251.9C153.159 257.592 155.269 263.024 158.735 267.568C162.201 272.111 166.882 275.582 172.237 277.579C177.591 279.576 183.401 280.018 188.996 278.853C194.591 277.689 199.743 274.966 203.856 270.998C213.855 261.371 224.182 252.029 234.367 242.559L238.081 239.073C244.309 251.258 243.68 254.472 234.11 262.142C175.298 309.203 116.528 356.274 57.8021 403.354C55.3024 405.354 50.3602 407.168 53.6026 411.424C56.8451 415.681 59.8305 411.296 62.3159 409.31C117.414 365.306 172.474 321.245 227.496 277.126C228.925 275.983 230.425 274.969 232.496 273.455V278.083C232.216 283.43 233.533 288.74 236.28 293.337C239.027 297.933 243.08 301.608 247.922 303.894C252.669 306.306 258.058 307.15 263.314 306.305C268.57 305.461 273.424 302.971 277.176 299.195C288.503 289.196 299.716 278.997 310.986 268.913C311.701 268.27 312.529 267.784 313.843 266.784C315.456 276.602 315.14 286.64 312.915 296.338C312.365 297.627 311.465 298.736 310.315 299.538C301.002 307.584 291.655 315.598 282.276 323.578L144.692 440.364C143.081 441.438 141.657 442.77 140.478 444.306C140.102 445.007 139.891 445.784 139.861 446.579C139.831 447.374 139.984 448.165 140.307 448.891C140.952 449.375 141.698 449.707 142.489 449.863C143.281 450.018 144.097 449.994 144.878 449.791C145.493 449.612 146.06 449.295 146.534 448.863C147.249 448.291 147.963 447.563 148.606 446.977L248.065 362.702C252.85 358.645 257.678 354.645 262.721 350.417C262.976 351.096 263.181 351.794 263.335 352.503C263.62 358.016 265.519 363.324 268.794 367.768C272.07 372.212 276.579 375.596 281.761 377.5C286.88 379.724 292.554 380.342 298.032 379.274C303.51 378.205 308.535 375.5 312.443 371.515C319.071 365.473 325.613 359.33 332.184 353.217C336.469 349.289 340.611 345.346 345.125 341.104C345.966 344.036 346.648 347.012 347.168 350.017C347.824 357.013 346.859 364.067 344.347 370.629C341.835 377.191 337.844 383.086 332.684 387.856C316.129 405.682 299.202 423.123 282.418 440.707C281.318 441.849 279.804 442.792 279.204 444.149C278.605 445.506 278.219 448.163 278.933 448.734L279.133 448.863C280.631 449.591 282.315 449.845 283.961 449.591C284.422 449.497 284.833 449.238 285.118 448.863C285.518 448.448 285.904 447.934 286.289 447.549C299.888 433.493 313.558 419.509 327.056 405.354C332.504 399.833 337.627 394 342.397 387.884C348.617 380.998 352.741 372.479 354.285 363.329C355.829 354.179 354.727 344.779 351.11 336.233C350.721 334.328 351.101 332.346 352.167 330.72C353.096 329.12 354.124 327.563 355.181 326.02C358.563 321.629 361.38 316.83 363.566 311.736C367.789 299.235 374.272 287.615 382.692 277.455C386.563 272.547 389.226 266.798 390.467 260.672C391.707 254.546 391.491 248.214 389.834 242.187C389.249 239.896 389.249 237.494 389.834 235.202C397.062 212.819 404.504 190.508 411.874 168.182L421.73 138.271L424.773 129.029C431.258 129.029 437.371 128.901 443.456 129.029C448.513 129.172 450.056 126.801 449.998 121.887C449.699 102.175 449.813 82.4776 449.813 62.78V62.78ZM196.457 267.127C193.264 270.083 189.216 271.952 184.894 272.465C180.573 272.979 176.2 272.11 172.403 269.984C168.623 268.369 165.437 265.624 163.281 262.125C161.124 258.626 160.105 254.545 160.361 250.443C160.819 245.406 162.911 240.655 166.318 236.916C188.463 215.801 212.456 196.712 238.009 179.88C239.404 178.894 240.991 178.213 242.666 177.881C243.79 177.673 244.942 177.673 246.066 177.881C247.411 178.143 248.695 178.656 249.851 179.395C252.187 180.845 254.075 182.914 255.305 185.373C256.536 187.831 257.061 190.583 256.821 193.322C256.525 200.453 254.031 207.318 249.679 212.976C234.123 233.051 216.26 251.226 196.457 267.127V267.127ZM270.734 294.681C268.251 297.235 264.989 298.89 261.462 299.386C257.934 299.883 254.342 299.192 251.251 297.424C247.996 295.732 245.226 293.239 243.202 290.18C241.178 287.121 239.966 283.597 239.681 279.94C239.349 276.783 239.754 273.591 240.865 270.617C241.975 267.643 243.76 264.967 246.08 262.799C267.763 242.8 291.026 224.586 315.643 208.334C316.386 207.863 317.071 207.391 317.886 206.906C320.036 205.353 322.641 204.56 325.292 204.651C327.942 204.741 330.487 205.71 332.527 207.406C334.5 209.077 335.896 211.328 336.517 213.839C337.137 216.349 336.951 218.991 335.983 221.39C332.869 231.763 327.121 241.152 319.3 248.644C303.544 264.385 287.161 279.54 270.763 294.624L270.734 294.681ZM355.167 312.408C346.058 327.712 334.656 341.528 321.357 353.374C316.291 358.259 311.029 362.93 305.573 367.387C302.683 369.785 299.208 371.372 295.504 371.986C291.8 372.601 287.999 372.22 284.49 370.883C280.981 369.547 277.89 367.302 275.533 364.378C273.176 361.455 271.639 357.958 271.077 354.245C270.848 352.181 271.03 350.092 271.614 348.099C272.197 346.105 273.17 344.247 274.476 342.632C293.914 321.524 316.129 303.154 340.511 288.025C340.808 287.91 341.122 287.847 341.44 287.839L342.868 289.267C338.869 293.553 334.755 297.638 330.913 302.023C329.757 303.718 328.799 305.539 328.056 307.451C330.17 308.079 332.641 309.736 334.355 309.151C341.254 306.837 348.039 304.151 355.31 301.295L361.18 299.009C358.981 303.866 357.409 308.294 355.195 312.35L355.167 312.408ZM374.779 276.197C369.451 282.981 362.772 288.584 355.167 292.653C352.815 293.967 350.401 295.195 347.925 296.338C350.467 286.611 353.01 277.597 355.167 268.484L355.253 268.113C357.369 259.164 361.393 250.779 367.051 243.53C370.522 238.973 374.422 240.787 378.407 241.773C382.092 242.673 383.021 245.373 383.178 248.915C383.764 258.703 380.791 268.372 374.807 276.14L374.779 276.197ZM408.203 154.783C399.947 179.78 391.591 204.777 383.535 229.803C382.021 234.502 379.964 235.359 375.522 232.531L396.705 138.357L399.962 123.901L417.102 127.915L413.66 138.357L408.203 154.783Z" fill="black"/>
</svg>
