<svg width="500" height="500" viewBox="0 0 500 500" fill="none" xmlns="http://www.w3.org/2000/svg">
<path d="M0 250V500H500V0H0V250ZM402.906 230.062C414.893 232.885 425.786 239.166 434.234 248.125C438.797 253 445.625 261.953 446.203 264.156C446.359 264.813 424.641 279.375 411.453 287.516C410.969 287.844 409.016 285.812 406.891 282.625C400.469 273.266 393.703 269.203 383.375 268.469C368.234 267.484 358.469 275.391 358.547 288.656C358.467 291.902 359.192 295.118 360.656 298.016C364 304.937 370.266 309.078 389.625 317.469C425.438 332.844 440.734 343.016 450.25 357.422C460.906 373.531 463.266 399.25 456.109 418.453C448.141 439.203 428.438 453.359 400.766 458C392.219 459.547 371.875 459.297 362.672 457.594C342.578 454.016 323.531 444.078 311.812 431.062C307.172 426.016 298.219 412.75 298.797 411.859C299.047 411.531 301.078 410.234 303.359 408.922L321.922 398.172L336.328 389.797L339.344 394.266C343.578 400.687 352.766 409.484 358.312 412.406C374.266 420.875 396.156 419.656 406.984 409.969C411.375 406.313 413.828 400.688 413.5 395C413.5 389.219 412.766 386.625 409.75 382.297C405.844 376.766 397.953 372.047 375.406 362.281C349.609 351.125 338.453 344.297 328.375 333.313C322.031 326.082 317.338 317.556 314.625 308.328C312.75 301.25 312.266 283.5 313.734 276.422C319.031 251.438 337.906 234.109 365 228.984C373.797 227.281 394.297 227.922 402.922 230.047L402.906 230.062ZM285.562 250.984L285.719 271.406H220.609V456.391H174.547V271.406H109.531V251.391C109.531 240.234 109.781 230.969 110.094 230.719C110.344 230.391 149.891 230.234 197.906 230.312L285.313 230.562L285.562 250.984Z" fill="#3178C6"/>
</svg>
