<svg width="500" height="500" viewBox="0 0 500 500" fill="none" xmlns="http://www.w3.org/2000/svg">
<rect width="500" height="500" fill="#272626"/>
<path d="M435.858 93.1267L353.494 53.4731C348.843 51.2304 343.609 50.4903 338.518 51.3554C333.427 52.2205 328.732 54.6479 325.082 58.3012L55.4634 304.108C52.1921 307.076 50.2339 311.223 50.0196 315.635C49.8053 320.047 51.3524 324.363 54.3206 327.635C54.6777 328.02 55.0348 328.392 55.4205 328.734L77.4329 348.733C80.3092 351.351 84.0117 352.878 87.8972 353.051C91.7826 353.223 95.6057 352.029 98.7024 349.676L423.459 103.412C425.912 101.55 428.836 100.41 431.902 100.121C434.968 99.8308 438.053 100.402 440.811 101.771C443.57 103.14 445.891 105.252 447.515 107.868C449.138 110.485 449.999 113.503 450 116.582V115.625C450 110.924 448.672 106.318 446.171 102.338C443.669 98.3582 440.094 95.1653 435.858 93.1267V93.1267Z" fill="#0065A9"/>
<path d="M435.858 406.528L353.494 446.196C348.841 448.432 343.609 449.169 338.52 448.304C333.431 447.439 328.735 445.015 325.082 441.367L55.4634 195.546C52.1921 192.578 50.2339 188.432 50.0196 184.02C49.8053 179.608 51.3524 175.291 54.3206 172.02C54.6777 171.634 55.0348 171.263 55.4205 170.92L77.4329 150.922C80.3122 148.293 84.0231 146.758 87.9181 146.586C91.8132 146.414 95.6451 147.614 98.7453 149.979L423.459 396.243C425.912 398.104 428.836 399.244 431.902 399.534C434.968 399.824 438.053 399.252 440.811 397.883C443.57 396.514 445.891 394.403 447.515 391.786C449.138 389.17 449.999 386.152 450 383.073V384.101C449.985 388.79 448.65 393.379 446.149 397.345C443.649 401.311 440.082 404.493 435.858 406.528V406.528Z" fill="#007ACC"/>
<path d="M353.494 446.196C348.842 448.432 343.609 449.169 338.52 448.304C333.431 447.439 328.735 445.015 325.083 441.367C327.134 443.392 329.737 444.766 332.566 445.318C335.395 445.869 338.324 445.573 340.985 444.468C343.647 443.362 345.923 441.495 347.528 439.101C349.133 436.708 349.996 433.893 350.009 431.011V68.6432C350.011 65.7475 349.154 62.9163 347.546 60.5082C345.938 58.1001 343.652 56.2235 340.976 55.116C338.301 54.0084 335.357 53.7199 332.517 54.287C329.678 54.854 327.07 56.2511 325.025 58.3012C328.675 54.6493 333.37 52.2217 338.46 51.3542C343.55 50.4867 348.783 51.2221 353.437 53.4588L435.787 93.0553C440.036 95.0837 443.626 98.2722 446.141 102.253C448.655 106.234 449.993 110.845 450 115.553V384.101C450.001 388.806 448.673 393.416 446.168 397.398C443.664 401.381 440.085 404.576 435.844 406.613L353.494 446.196Z" fill="#1F9CF0"/>
</svg>
