<svg width="491" height="852" viewBox="0 0 491 852" fill="none" xmlns="http://www.w3.org/2000/svg">
<path d="M18.7383 18.7383C6.74019 30.7401 0 47.0158 0 63.9863C0 80.9568 6.74019 97.2326 18.7383 109.234L335.538 426.034L18.7383 742.834C7.08023 754.905 0.629358 771.071 0.775177 787.852C0.920996 804.633 7.65182 820.685 19.5179 832.551C31.3841 844.417 47.4361 851.148 64.2166 851.293C80.9972 851.439 97.1638 844.988 109.234 833.33L471.282 471.282C483.28 459.281 490.021 443.005 490.021 426.034C490.021 409.064 483.28 392.788 471.282 380.786L109.234 18.7383C97.2325 6.74019 80.9568 0 63.9863 0C47.0158 0 30.7401 6.74019 18.7383 18.7383Z" fill="black"/>
</svg>
