<svg width="500" height="443" viewBox="0 0 500 443" fill="none" xmlns="http://www.w3.org/2000/svg">
<path d="M412.523 29.5494V383.141C412.523 399.411 399.346 412.606 383.057 412.606C366.768 412.606 353.591 399.411 353.591 383.141V126.87L230.755 311.124C219.816 327.524 192.652 327.524 181.722 311.124L58.9319 126.87V383.131C58.9319 399.402 45.7551 412.597 29.4659 412.597C13.1768 412.597 0 399.402 0 383.131V29.5402C0 16.566 8.48895 5.09268 20.9208 1.33577C33.3241 -2.49112 46.7864 2.38642 53.9871 13.1958L206.262 241.603L358.564 13.1498C365.757 2.34866 379.254 -2.53163 391.63 1.28973C404.052 5.11109 412.523 16.5752 412.523 29.5494Z" fill="black"/>
<path d="M500 59.9361V413.527C500 429.798 486.823 442.993 470.534 442.993C454.245 442.993 441.068 429.798 441.068 413.527V157.257L318.232 341.511C307.293 357.91 280.129 357.91 269.199 341.511L146.409 157.257V413.518C146.409 429.789 133.232 442.984 116.943 442.984C100.654 442.984 87.477 429.789 87.477 413.518V59.9269C87.477 46.9527 95.9659 35.4794 108.398 31.7225C120.801 27.8956 134.263 32.7732 141.464 43.5825L293.738 271.99L446.041 43.5365C453.234 32.7354 466.731 27.8551 479.107 31.6765C491.529 35.4978 500 46.9619 500 59.9361Z" fill="#C5283D"/>
</svg>
