<svg width="413" height="413" viewBox="0 0 413 413" fill="none" xmlns="http://www.w3.org/2000/svg">
<path d="M412.523 29.5494V383.141C412.523 399.411 399.346 412.607 383.057 412.607C366.768 412.607 353.591 399.411 353.591 383.141V126.87L230.755 311.124C219.816 327.524 192.652 327.524 181.722 311.124L58.9319 126.87V383.131C58.9319 399.402 45.7551 412.597 29.4659 412.597C13.1768 412.597 0 399.402 0 383.131V29.5402C0 16.566 8.48895 5.09268 20.9208 1.33577C33.3241 -2.49112 46.7864 2.38642 53.9871 13.1958L206.262 241.603L358.564 13.1498C365.757 2.34866 379.254 -2.53163 391.63 1.28973C404.052 5.11109 412.523 16.5752 412.523 29.5494Z" fill="black"/>
</svg>
