<svg width="413" height="413" viewBox="0 0 413 413" fill="none" xmlns="http://www.w3.org/2000/svg">
<path d="M413 29.9361V383.527C413 399.798 399.823 412.993 383.534 412.993C367.245 412.993 354.068 399.798 354.068 383.527V127.257L231.232 311.511C220.293 327.91 193.129 327.91 182.199 311.511L59.4088 127.257V383.518C59.4088 399.789 46.2321 412.984 29.9429 412.984C13.6538 412.984 0.47699 399.789 0.47699 383.518V29.9269C0.47699 16.9527 8.96594 5.47941 21.3978 1.7225C33.8011 -2.10438 47.2634 2.77315 54.4641 13.5825L206.738 241.99L359.04 13.5365C366.234 2.7354 379.731 -2.1449 392.107 1.67647C404.529 5.49783 413 16.9619 413 29.9361Z" fill="#C5283D"/>
</svg>
